<svg width="65" height="65" viewBox="0 0 65 65" fill="none" xmlns="http://www.w3.org/2000/svg">
<path d="M57.6208 2.198H7.37923C3.30569 2.20229 0.00429311 5.50369 0 9.57722V43.4731C0.00429311 47.5466 3.30569 50.8474 7.37923 50.8523H23.9181L30.6141 61.9353C30.6184 61.942 30.6233 61.9494 30.6276 61.9567C30.9876 62.5216 31.6107 62.8638 32.2804 62.8638C32.9508 62.8638 33.5739 62.5216 33.9339 61.9567L33.9474 61.9353L40.6434 50.8523H57.6208C61.6943 50.8474 64.9957 47.5466 65 43.4731V9.57722C64.9957 5.50369 61.6943 2.20229 57.6208 2.198ZM62.8019 43.4731C62.7989 46.3329 60.4806 48.6506 57.6208 48.6543H40.0234C39.6388 48.6543 39.2819 48.8554 39.0832 49.1848L32.2811 60.4419L25.4783 49.1848C25.2796 48.8554 24.9227 48.6543 24.5381 48.6543H7.37923C4.51941 48.6506 2.20113 46.3329 2.19807 43.4731V9.57722C2.20113 6.71679 4.5188 4.39913 7.37923 4.39607H57.6208C60.4812 4.39913 62.7989 6.71679 62.8019 9.57722V43.4731Z" fill="#5a19b4"/>
<path d="M43.5163 18.9082L29.2656 32.5192L21.5019 24.7548C21.0726 24.3255 20.3771 24.3255 19.9478 24.7548C19.5185 25.1841 19.5185 25.8802 19.9478 26.3096L28.4714 34.8332C28.894 35.2558 29.576 35.2631 30.0077 34.851L45.0348 20.4979C45.4733 20.0784 45.4893 19.3829 45.0704 18.9438C44.6509 18.5047 43.9554 18.4887 43.5163 18.9082Z" fill="#5a19b4"/>
</svg>
